<?xml version="1.0" encoding="utf-8"?><!DOCTYPE svg PUBLIC "-//W3C//DTD SVG 1.1//EN" "http://www.w3.org/Graphics/SVG/1.1/DTD/svg11.dtd"><svg xmlns="http://www.w3.org/2000/svg" xml:space="preserve" width="512px" height="229px" x="0px" y="0px" version="1.1" viewBox="0 0 512 229"><path fill="#932727" d="M480.54 142.621c9.42 0 15.601-.611 18.521-1.83 5.439-2.359 8.17-7.551 8.17-15.602v-69.33c0-11.72-5.729-17.57-17.189-17.57h-120c24.51 0 44.38 19.871 44.38 44.381V229h28.51V62.819h35.91v60.431h-28v17.17l31.43 88.58H512l-31.46-86.379zM230.641 229H370.02c-24.5-.01-44.369-19.869-44.369-44.379V74.51c0-11.2-3.33-20.04-9.99-26.5s-15.641-9.69-26.939-9.69h-58.08V229zm66.369-40.689c0 10.811-5.81 16.211-17.42 16.211h-20.47V62.851h21.19c11.129 0 16.699 5.311 16.699 15.95v109.51h.001zm58.22-110.73v112.111c-.16 8.17 6.33 14.92 14.5 15.08 8.18.158 14.93-6.33 15.09-14.5V77.581c-.16-8.17-6.91-14.66-15.09-14.51-7.94.159-14.35 6.559-14.5 14.51zM214.45 229l-.02-190.68h-27.77v103.811c0 3.33.61 7.92 1.82 13.77L142.801 38.32H117.84V229h27.771V122.76c0-3.34-.61-7.929-1.83-13.77L189.471 229h24.979zM51.65 82.281 75.29 229h28.24L66.87 38.081H36.92L0 228.48v.49h28.141L51.65 82.281zM315.46 16.32h-4.09c-.149 0-.25-.159-.25-.319 0-.061 2.18-7.08 2.18-7.08.08-.271.08-.271.11-.271.04 0 .04 0 .119.271 0 0 2.181 7.02 2.181 7.08 0 .159-.11.319-.25.319zM320.98.25a.354.354 0 0 0-.312-.25H305.64a.352.352 0 0 0-.32.25s-8.312 27.42-8.312 27.5c0 .14.11.25.24.25h9.938c.08-.03.14-.098.16-.181l1.131-3.699c.039-.101.119-.16.221-.16h9.22c.09.01.18.07.221.16l1.181 3.699c.02.091.08.16.159.19h9.771c.13.01.25-.101.25-.229-.01-.09-8.521-27.53-8.52-27.53zm28.332 11.21h-6.102a.246.246 0 0 1-.17-.23V8.15c0-.109.061-.199.16-.229h5.601c1-.091 1.89.649 1.979 1.659v.17a1.69 1.69 0 0 1-1.468 1.71zm29.278-2.39h13.83V0h-17.789c-1.909.11-3.761.75-5.341 1.85a8.228 8.228 0 0 0-3.28 6.39 9.954 9.954 0 0 0 1.892 5.561c.97 1.2 3.399 3.72 3.399 3.72.06.05.08.13.08.22 0 .19-.141.341-.341.341h-13.67c-1.7 0-1.79-.66-1.79-.771 0-.1.21-.27.21-.27.67-.391 1.3-.82 1.899-1.301a8.046 8.046 0 0 0 3.041-6.55 8.419 8.419 0 0 0-3.01-6.71 10.965 10.965 0 0 0-6.302-2.479h-19.55v27.83c0 .09.069.159.17.159h10.88v-7.8c0-.14.21 0 .21 0l5.67 5.69c2.021 2.029 5.352 2.109 5.352 2.109h21.43c4.68.11 8.561-3.59 8.66-8.26v-.38a8.64 8.64 0 0 0-2.261-6.02c-.601-.72-3-3.25-3.489-3.78a.254.254 0 0 1-.101-.2c-.009-.129.082-.238.201-.279zm-86.55 18.92c.069 0 .12-.06.149-.14l8.42-27.689c0-.021-.049-.15-.109-.16h-10.391c-.049 0-.08.04-.09.101l-2.14 7.198c0 .01-.05.101-.101.101a.13.13 0 0 1-.101-.101l-2.27-7.199c0-.061-.04-.091-.09-.101h-11.461c-.039.021-.061.04-.069.07l-2.02 7.23c0 .061-.039.101-.1.101a.109.109 0 0 1-.101-.08l-2.131-7.23c-.01-.05-.039-.09-.09-.09h-11.07c-.09 0-.159.07-.159.16v.05l8.55 27.64c.011.08.07.14.15.14h9.18c.07-.02.12-.069.142-.14l3.188-10.28c0-.06.051-.1.101-.1.051 0 .08.04.1.1l3.121 10.33c.021.051.07.091.119.091l9.273-.002zM145.521 0c-1.921.11-3.772.75-5.351 1.85a8.227 8.227 0 0 0-3.279 6.4c.06 2 .72 3.93 1.899 5.55.97 1.21 3.399 3.74 3.399 3.74.061.05.091.13.091.22 0 .18-.15.34-.341.34H119.58v9.89h26.87a8.465 8.465 0 0 0 8.659-8.27v-.37a8.647 8.647 0 0 0-2.27-6.04c-.6-.72-2.99-3.23-3.49-3.76a.27.27 0 0 1-.09-.2c0-.12.07-.229.17-.28h12.99v18.92h9.949V9.12h12.091V0h-38.938zm86.819 11.46h-6.119a.224.224 0 0 1-.16-.23V8.15c-.01-.1.06-.199.16-.229h5.59c1-.091 1.88.659 1.96 1.659l.01.17c.009.84-.601 1.57-1.441 1.71zm8.041 6.621c-1.67 0-1.78-.66-1.78-.761 0-.1.21-.279.21-.279.66-.391 1.29-.82 1.89-1.301 2-1.58 3.12-4 3.04-6.539a8.329 8.329 0 0 0-3.01-6.711A10.878 10.878 0 0 0 234.43.001h-19.55V27.82c0 .091.08.17.17.16h10.89v-7.79c0-.14.211 0 .211 0l5.659 5.66c2.021 2.05 5.351 2.11 5.351 2.11h16.72v-9.88h-13.5v.001zM199 16.331h-4.09c-.149 0-.25-.17-.25-.32 0-.06 2.18-7.08 2.18-7.08.08-.26.101-.271.121-.271 0 0 .039 0 .119.271 0 0 2.17 7.021 2.17 7.08 0 .149-.09.32-.25.32zM204.521.25a.34.34 0 0 0-.32-.25h-15.04c-.14 0-.26.11-.31.239 0 0-8.3 27.45-8.3 27.521 0 .14.109.25.25.25h9.93a.216.216 0 0 0 .16-.18l1.14-3.71c.04-.08.13-.15.22-.15h9.17c.1.01.189.07.23.16l1.229 3.67c.021.09.07.16.149.189h9.78c.13.011.24-.09.25-.229-.019-.05-8.539-27.51-8.538-27.51z"/></svg>